<svg width="1024" height="1024" xmlns="http://www.w3.org/2000/svg" p-id="15094" version="1.1" class="icon" t="1641188484748">
 <defs>
  <style type="text/css"/>
 </defs>
 <g>
  <title>background</title>
  <rect fill="none" id="canvas_background" height="1026" width="1026" y="-1" x="-1"/>
 </g>
 <g>
  <title>Layer 1</title>
  <path stroke="null" id="svg_1" p-id="15095" d="m201.862429,60.930087c237.559602,0.601417 474.918733,0.200472 712.478335,0.400944c23.25478,0 47.51192,-3.408028 46.509559,-31.474141c-0.801889,-25.05903 -24.257141,-28.467058 -46.108615,-28.467058c-237.559602,0.200472 -474.918733,-0.400944 -712.478335,0.400944c-88.809202,0.200472 -140.330567,52.724199 -140.931984,140.931984c-0.601417,73.773784 -0.200472,147.74804 -0.200472,221.521823c0,172.807069 -0.200472,345.614139 0.200472,518.220736c0.200472,84.398812 46.309087,136.722067 124.693732,138.726789c0,-270.637522 0.200472,-538.668904 -1.002361,-806.700287c0,-8.419834 -13.231168,-19.245335 -22.853835,-24.658085c-38.691142,-21.049585 -52.924671,-62.146394 -31.273669,-96.226674c16.438724,-25.860919 41.096809,-32.877447 70.967172,-32.676975z"/>
  <path stroke="null" id="svg_2" p-id="15096" d="m612.916281,479.599994l91.855818,0l0,40.869769l-91.855818,0l0,-40.869769zm123.216285,174.80931l-162.265124,0c-3.844186,0 -5.867442,2.023256 -5.867442,5.867442l0,27.111629l174.000008,0l0,-27.111629c0,-3.844186 -2.023256,-5.867442 -5.867442,-5.867442zm-168.132566,114.71861c1.213954,2.630233 3.237209,4.451163 5.867442,5.867442l162.265124,0c3.844186,0 5.867442,-2.023256 5.867442,-5.867442l0,-27.111629l-174.000008,0l0,27.111629z"/>
  <path stroke="null" id="svg_3" p-id="15097" d="m962.327938,266.61823c0,-49.217864 -7.843484,-57.257435 -56.080913,-57.257435l-625.910047,0c-12.353488,0 -24.706976,0.980436 -38.236986,1.568697l0,810.231928c14.314359,0.588261 24.706976,1.568697 35.099592,1.568697c209.813205,0 419.62641,0.196087 629.439615,0c48.041341,0 55.688738,-8.039571 55.688738,-57.64961c0.196087,-232.755396 0.196087,-465.510793 0,-698.462276zm-483.746894,531.003887c-1.176523,15.098707 -10.784791,23.138279 -28.432631,24.510888c-19.020449,-1.176523 -29.020892,-9.412181 -30.393502,-24.510888l0,-195.89102c-20.196972,8.82392 -32.158286,2.549132 -36.080028,-18.824362c1.176523,-8.82392 5.098265,-21.373495 11.373052,-37.648725c11.373052,-17.64784 25.883498,-69.022662 43.531338,-154.320553c3.725655,-13.726098 14.510446,-20.000885 32.158286,-18.824362c15.098707,3.725655 21.373495,13.137836 19.020449,28.236543c-7.647397,41.37438 -11.373052,65.885268 -11.373052,73.336578l0,323.935901l0.196087,0zm276.286734,18.824362l-196.871456,0c-29.020892,1.176523 -42.943077,-12.549575 -41.766554,-41.37438l0,-139.221846c0,-27.648282 14.510446,-41.37438 43.531338,-41.37438l197.067543,0c27.844369,0 41.766554,14.510446 41.766554,43.335251l0,141.182717c2.549132,26.079585 -11.961314,38.62916 -43.531338,37.452638l-0.196087,0zm53.139606,-242.951926l-291.581529,0c-16.471317,-1.176523 -25.295237,-10.000442 -26.471759,-26.275672c0,-17.64784 8.235659,-27.060021 24.706976,-28.236543l45.492209,0l0,-39.609596l-43.727425,0c-15.098707,-1.176523 -23.334366,-10.588704 -24.706976,-28.236543c2.549132,-16.27523 11.373052,-25.09915 26.471759,-26.275672l41.766554,0l0,-30.197415c1.176523,-12.549575 10.784791,-19.412624 28.432631,-20.785233c17.64784,1.176523 27.060021,8.235659 28.432631,20.785233l0,30.197415l89.023547,0l0,-30.197415c1.176523,-15.098707 10.784791,-23.138279 28.432631,-24.510888c17.64784,2.549132 27.060021,11.373052 28.432631,26.275672l0,28.236543l39.805683,0c13.922185,1.176523 21.373495,10.000442 22.746104,26.275672c-1.176523,17.64784 -8.82392,27.060021 -22.746104,28.236543l-39.805683,0l0,39.609596l43.531338,0c15.098707,1.176523 23.922627,10.000442 26.471759,26.275672c-1.176523,17.843927 -9.412181,27.256108 -24.510888,28.432631l-0.196087,0z"/>
 </g>
</svg>