<?xml version="1.0" standalone="no"?><!DOCTYPE svg PUBLIC "-//W3C//DTD SVG 1.1//EN" "http://www.w3.org/Graphics/SVG/1.1/DTD/svg11.dtd"><svg t="1641188484748" class="icon" viewBox="0 0 1024 1024" version="1.1" xmlns="http://www.w3.org/2000/svg" p-id="15094" xmlns:xlink="http://www.w3.org/1999/xlink" width="256" height="256"><defs><style type="text/css"></style></defs><path d="M356.6 286.2c118.5 0.3 236.9 0.1 355.4 0.2 11.6 0 23.7-1.7 23.2-15.7-0.4-12.5-12.1-14.2-23-14.2-118.5 0.1-236.9-0.2-355.4 0.2-44.3 0.1-70 26.3-70.3 70.3-0.3 36.8-0.1 73.7-0.1 110.5 0 86.2-0.1 172.4 0.1 258.5 0.1 42.1 23.1 68.2 62.2 69.2 0-135 0.1-268.7-0.5-402.4 0-4.2-6.6-9.6-11.4-12.3-19.3-10.5-26.4-31-15.6-48 8.2-12.9 20.5-16.4 35.4-16.3z" p-id="15095"></path><path d="M560.2 490.6h45.4v20.2h-45.4zM621.1 577h-80.2c-1.9 0-2.9 1-2.9 2.9v13.4h86v-13.4c0-1.9-1-2.9-2.9-2.9zM538 633.7c0.6 1.3 1.6 2.2 2.9 2.9h80.2c1.9 0 2.9-1 2.9-2.9v-13.4h-86v13.4z" p-id="15096"></path><path d="M736.4 382.1c0-25.1-4-29.2-28.6-29.2H388.6c-6.3 0-12.6 0.5-19.5 0.8v413.2c7.3 0.3 12.6 0.8 17.9 0.8 107 0 214 0.1 321 0 24.5 0 28.4-4.1 28.4-29.4 0.1-118.7 0.1-237.4 0-356.2zM489.7 652.9c-0.6 7.7-5.5 11.8-14.5 12.5-9.7-0.6-14.8-4.8-15.5-12.5V553c-10.3 4.5-16.4 1.3-18.4-9.6 0.6-4.5 2.6-10.9 5.8-19.2 5.8-9 13.2-35.2 22.2-78.7 1.9-7 7.4-10.2 16.4-9.6 7.7 1.9 10.9 6.7 9.7 14.4-3.9 21.1-5.8 33.6-5.8 37.4v165.2z m141 9.6H530.2c-14.8 0.6-21.9-6.4-21.3-21.1v-71c0-14.1 7.4-21.1 22.2-21.1h100.5c14.2 0 21.3 7.4 21.3 22.1v72c1.3 13.3-6.1 19.7-22.2 19.1z m27.1-123.9H509c-8.4-0.6-12.9-5.1-13.5-13.4 0-9 4.2-13.8 12.6-14.4h23.2v-20.2H509c-7.7-0.6-11.9-5.4-12.6-14.4 1.3-8.3 5.8-12.8 13.5-13.4h21.3v-15.4c0.6-6.4 5.5-9.9 14.5-10.6 9 0.6 13.8 4.2 14.5 10.6v15.4h45.4v-15.4c0.6-7.7 5.5-11.8 14.5-12.5 9 1.3 13.8 5.8 14.5 13.4v14.4h20.3c7.1 0.6 10.9 5.1 11.6 13.4-0.6 9-4.5 13.8-11.6 14.4h-20.3v20.2h22.2c7.7 0.6 12.2 5.1 13.5 13.4-0.6 9.1-4.8 13.9-12.5 14.5z" p-id="15097"></path></svg>