<?xml version="1.0" standalone="no"?><!DOCTYPE svg PUBLIC "-//W3C//DTD SVG 1.1//EN" "http://www.w3.org/Graphics/SVG/1.1/DTD/svg11.dtd"><svg width="128" height="128" t="1641189026207" class="icon" viewBox="0 0 1024 1024" version="1.1" xmlns="http://www.w3.org/2000/svg" p-id="18809" xmlns:xlink="http://www.w3.org/1999/xlink"><defs><style type="text/css"></style></defs><path d="M960 128H563.2c-20.8 0-38.4 4.8-51.2 17.6-17.6-12.8-33.6-17.6-51.2-17.6H64c-33.6 0-64 30.4-64 64v596.8c0 33.6 30.4 64 64 64h404.8c0 25.6 17.6 43.2 43.2 43.2s43.2-17.6 43.2-43.2H960c33.6 0 64-30.4 64-64V192c0-33.6-30.4-64-64-64zM84.8 768V212.8h376c4.8 0 8 4.8 8 8V768h-384z m854.4 0h-384V222.4c0-4.8 4.8-8 8-8h376V768z" p-id="18810"></path><path d="M340.8 299.2H171.2c-25.6 0-43.2 17.6-43.2 43.2S145.6 384 171.2 384h171.2c25.6 0 43.2-17.6 43.2-43.2-1.6-25.6-19.2-41.6-44.8-41.6zM683.2 384h171.2c25.6 0 43.2-17.6 43.2-43.2s-17.6-43.2-43.2-43.2H683.2c-25.6 0-43.2 17.6-43.2 43.2s17.6 43.2 43.2 43.2zM683.2 512h171.2c25.6 0 43.2-17.6 43.2-43.2s-17.6-43.2-43.2-43.2H683.2c-25.6 0-43.2 17.6-43.2 43.2s17.6 43.2 43.2 43.2zM340.8 427.2H171.2c-25.6 0-43.2 17.6-43.2 43.2s17.6 43.2 43.2 43.2h171.2c25.6 0 43.2-17.6 43.2-43.2-1.6-27.2-19.2-43.2-44.8-43.2zM340.8 555.2H171.2c-25.6 0-43.2 17.6-43.2 43.2s17.6 43.2 43.2 43.2h171.2c25.6 0 43.2-17.6 43.2-43.2-1.6-27.2-19.2-43.2-44.8-43.2zM683.2 640h171.2c25.6 0 43.2-17.6 43.2-43.2s-17.6-43.2-43.2-43.2H683.2c-25.6 0-43.2 17.6-43.2 43.2s17.6 43.2 43.2 43.2z" p-id="18811"></path></svg>