<?xml version="1.0" standalone="no"?><!DOCTYPE svg PUBLIC "-//W3C//DTD SVG 1.1//EN" "http://www.w3.org/Graphics/SVG/1.1/DTD/svg11.dtd"><svg width="128" height="128" t="1641188383218" class="icon" viewBox="0 0 1024 1024" version="1.1" xmlns="http://www.w3.org/2000/svg" p-id="10258" xmlns:xlink="http://www.w3.org/1999/xlink"><defs><style type="text/css"></style></defs><path d="M704 576c-19.2 0-32 12.8-32 32s12.8 32 32 32 32-12.8 32-32-12.8-32-32-32" p-id="10259"></path><path d="M864 320H192V192h576v-64H160c-19.2 0-32 12.8-32 32v704c0 19.2 12.8 32 32 32h704c19.2 0 32-12.8 32-32V352c0-19.2-12.8-32-32-32z m-32 352H576V544h256v128z m0-192H544c-19.2 0-32 12.8-32 32v192c0 19.2 12.8 32 32 32h288v96H192V384h640v96z" p-id="10260"></path></svg>